<svg width="38" height="38" viewBox="0 0 38 38" fill="none" xmlns="http://www.w3.org/2000/svg">
<g clip-path="url(#clip0_142_2978)">
<g clip-path="url(#clip1_142_2978)">
<path d="M4.75 33.25L7.3625 27.2333C5.3638 24.3961 4.46922 20.927 4.84665 17.477C5.22409 14.027 6.84758 10.8334 9.41245 8.49542C11.9773 6.15744 15.3073 4.83585 18.7774 4.77867C22.2474 4.72149 25.6191 5.93265 28.2596 8.18485C30.9001 10.4371 32.628 13.5755 33.1189 17.0111C33.6098 20.4468 32.83 23.9435 30.9258 26.8451C29.0217 29.7466 26.1241 31.8535 22.7769 32.7704C19.4296 33.6873 15.8628 33.3512 12.7458 31.825L4.75 33.25Z" stroke="white" stroke-width="2" stroke-linecap="round" stroke-linejoin="round"/>
<path d="M14.25 15.8333C14.25 16.0433 14.3334 16.2447 14.4819 16.3931C14.6303 16.5416 14.8317 16.625 15.0417 16.625C15.2516 16.625 15.453 16.5416 15.6015 16.3931C15.7499 16.2447 15.8333 16.0433 15.8333 15.8333V14.25C15.8333 14.04 15.7499 13.8387 15.6015 13.6902C15.453 13.5418 15.2516 13.4583 15.0417 13.4583C14.8317 13.4583 14.6303 13.5418 14.4819 13.6902C14.3334 13.8387 14.25 14.04 14.25 14.25V15.8333ZM14.25 15.8333C14.25 17.933 15.0841 19.9466 16.5687 21.4313C18.0534 22.9159 20.067 23.75 22.1667 23.75M22.1667 23.75H23.75C23.96 23.75 24.1613 23.6666 24.3098 23.5181C24.4583 23.3697 24.5417 23.1683 24.5417 22.9583C24.5417 22.7484 24.4583 22.547 24.3098 22.3986C24.1613 22.2501 23.96 22.1667 23.75 22.1667H22.1667C21.9567 22.1667 21.7553 22.2501 21.6069 22.3986C21.4584 22.547 21.375 22.7484 21.375 22.9583C21.375 23.1683 21.4584 23.3697 21.6069 23.5181C21.7553 23.6666 21.9567 23.75 22.1667 23.75Z" stroke="white" stroke-width="2" stroke-linecap="round" stroke-linejoin="round"/>
</g>
</g>
<defs>
<clipPath id="clip0_142_2978">
<rect width="38" height="38" fill="white"/>
</clipPath>
<clipPath id="clip1_142_2978">
<rect width="38" height="38" fill="white"/>
</clipPath>
</defs>
</svg>
